<svg xmlns="http://www.w3.org/2000/svg" xmlns:xlink="http://www.w3.org/1999/xlink" width="115.734375" height="19.515625"><path fill="white" stroke="black" stroke-width=".75" d="M7.28 3.49L0.09 3.49L0.09 6.02L2.04 6.02L2.04 16.14L5.33 16.14L5.33 6.02L7.28 6.02ZM15.59 3.49L12.30 3.49L12.30 8.02L11.32 8.02L11.32 3.49L8.03 3.49L8.03 16.14L11.32 16.14L11.32 10.83L12.30 10.83L12.30 16.14L15.59 16.14ZM22.59 3.49L17.84 3.49L16.16 16.14L19.57 16.14L19.77 13.87L20.95 13.87L21.11 16.14L24.48 16.14ZM20.85 11.63L19.73 11.63C19.81 10.51 20.02 8.74 20.35 6.32C20.52 8.42 20.68 10.19 20.85 11.63ZM30.78 3.49L23.59 3.49L23.59 6.02L25.54 6.02L25.54 16.14L28.83 16.14L28.83 6.02L30.78 6.02ZM37.64 3.49L34.35 3.49L34.35 16.14L37.64 16.14ZM49.11 3.49L44.82 3.49L44.07 9.40L43.62 6.18C43.48 5.15 43.34 4.25 43.22 3.49L38.96 3.49L38.96 16.14L41.84 16.14L41.84 7.80L43.05 16.14L45.09 16.14L46.23 7.60L46.23 16.14L49.11 16.14ZM50.43 3.49L50.43 16.14L53.72 16.14L53.72 11.05L54.60 11.05C55.32 11.05 55.90 10.95 56.35 10.75C56.79 10.55 57.10 10.27 57.27 9.90C57.43 9.53 57.52 8.94 57.52 8.13L57.52 7.03C57.52 6.24 57.47 5.65 57.39 5.28C57.30 4.90 57.14 4.58 56.89 4.31C56.65 4.05 56.29 3.84 55.81 3.70C55.33 3.56 54.64 3.49 53.74 3.49ZM53.72 5.66C54.15 5.66 54.43 5.72 54.56 5.85C54.70 5.98 54.77 6.26 54.77 6.70L54.77 7.73C54.77 8.20 54.71 8.51 54.59 8.66C54.47 8.81 54.26 8.88 53.96 8.88C53.89 8.88 53.81 8.88 53.72 8.88ZM63.74 3.49L58.98 3.49L57.31 16.14L60.72 16.14L60.91 13.87L62.09 13.87L62.26 16.14L65.63 16.14ZM62 11.63L60.88 11.63C60.96 10.51 61.17 8.74 61.50 6.32C61.67 8.42 61.83 10.19 62 11.63ZM73.87 9.01L73.87 7.80C73.87 6.62 73.77 5.75 73.57 5.19C73.37 4.63 72.96 4.16 72.33 3.79C71.70 3.41 70.90 3.23 69.93 3.23C69.22 3.23 68.58 3.35 68.04 3.59C67.49 3.83 67.06 4.16 66.75 4.59C66.44 5.01 66.25 5.45 66.19 5.90C66.13 6.36 66.09 7.04 66.09 7.95L66.09 11.65C66.09 12.89 66.20 13.82 66.40 14.43C66.60 15.05 67.02 15.53 67.64 15.88C68.27 16.23 69.06 16.41 70.02 16.41C70.95 16.41 71.73 16.20 72.36 15.79C73.00 15.38 73.40 14.90 73.59 14.35C73.77 13.80 73.87 12.88 73.87 11.57L73.87 11.08L70.58 11.08L70.58 12.66C70.58 13.36 70.54 13.80 70.46 13.98C70.39 14.17 70.23 14.27 69.98 14.27C69.73 14.27 69.57 14.17 69.49 13.98C69.42 13.80 69.38 13.40 69.38 12.78L69.38 6.91C69.38 6.27 69.42 5.85 69.49 5.66C69.57 5.46 69.74 5.37 70.01 5.37C70.25 5.37 70.40 5.45 70.47 5.61C70.54 5.76 70.58 6.16 70.58 6.80L70.58 9.01ZM81.67 3.49L74.48 3.49L74.48 6.02L76.43 6.02L76.43 16.14L79.72 16.14L79.72 6.02L81.67 6.02ZM85.24 3.49L85.24 16.14L88.53 16.14L88.53 10.83L90.56 10.83L90.56 8.42L88.53 8.42L88.53 6.02L90.81 6.02L90.81 3.49ZM99.13 10.90L99.13 8.73C99.13 7.43 99.09 6.52 99.03 6C98.97 5.48 98.77 5.00 98.45 4.55C98.12 4.11 97.68 3.78 97.14 3.56C96.61 3.34 96.00 3.23 95.32 3.23C94.61 3.23 93.98 3.34 93.45 3.58C92.91 3.81 92.48 4.15 92.17 4.59C91.85 5.02 91.67 5.51 91.61 6.04C91.55 6.56 91.52 7.46 91.52 8.73L91.52 10.90C91.52 12.20 91.55 13.11 91.61 13.63C91.67 14.15 91.87 14.64 92.20 15.08C92.52 15.52 92.96 15.85 93.50 16.07C94.04 16.30 94.64 16.41 95.32 16.41C96.03 16.41 96.66 16.29 97.20 16.05C97.73 15.82 98.16 15.48 98.47 15.05C98.79 14.61 98.98 14.13 99.04 13.60C99.10 13.07 99.13 12.17 99.13 10.90ZM95.84 6.74L95.84 12.55C95.84 13.30 95.80 13.77 95.74 13.97C95.68 14.17 95.54 14.27 95.31 14.27C95.09 14.27 94.95 14.18 94.89 14.01C94.83 13.84 94.80 13.38 94.80 12.65L94.80 6.74C94.80 6.09 94.85 5.70 94.94 5.57C95.03 5.43 95.16 5.37 95.34 5.37C95.54 5.37 95.67 5.45 95.74 5.61C95.80 5.78 95.84 6.15 95.84 6.74ZM107.70 3.49L104.95 3.49L104.95 9.19L103.10 3.49L100.35 3.49L100.35 16.14L103.10 16.14L103.10 10.39L104.81 16.14L107.70 16.14ZM115.64 3.49L108.45 3.49L108.45 6.02L110.40 6.02L110.40 16.14L113.69 16.14L113.69 6.02L115.64 6.02Z"/></svg>